<svg id="Capa_1" enable-background="new 0 0 512 512" height="512" viewBox="0 0 512 512" width="512" xmlns="http://www.w3.org/2000/svg"><g><g><g><g><g><g><g><path d="m396.957 287.898h-218.37c-16.087 0-30.572-8.271-38.751-22.122-8.178-13.853-8.421-30.531-.65-44.616l109.185-197.898c8.035-14.566 22.765-23.261 39.4-23.262 16.636 0 31.365 8.695 39.402 23.262l109.185 197.898c7.771 14.085 7.527 30.764-.65 44.616-8.178 13.852-22.664 22.122-38.751 22.122z" fill="#8989a5"/><path d="m327.173 23.262c-8.037-14.567-22.767-23.262-39.402-23.262v287.898h109.186c16.087 0 30.573-8.271 38.751-22.122 8.178-13.853 8.421-30.531.65-44.616z" fill="#616173"/><path d="m287.771 30c-2.663 0-9.272.756-13.133 7.754l-109.185 197.898c-3.733 6.768-1.092 12.654.217 14.872 1.309 2.217 5.188 7.374 12.917 7.374h218.37c7.729 0 11.608-5.157 12.917-7.374 1.309-2.218 3.95-8.104.217-14.872l-109.186-197.898c-3.861-6.998-10.471-7.754-13.134-7.754z" fill="#fff36c"/><path d="m300.905 37.754c-3.861-6.998-10.471-7.754-13.134-7.754v227.898h109.186c7.729 0 11.608-5.157 12.917-7.374 1.309-2.218 3.95-8.104.217-14.872z" fill="#ffda44"/><g><g><g><g><path d="m287.771 177.898c-8.284 0-15-6.716-15-15v-65c0-8.284 6.716-15 15-15s15 6.716 15 15v65c0 8.285-6.715 15-15 15z" fill="#8989a5"/></g></g></g></g><path d="m287.771 82.898v95c8.284 0 15-6.716 15-15v-65c0-8.284-6.715-15-15-15z" fill="#616173"/></g></g></g></g></g><g><path d="m302.772 212.898c0 8.284-6.716 15-15 15s-15-6.716-15-15 6.716-15 15-15 15 6.716 15 15z" fill="#8989a5"/></g><path d="m287.772 197.898c-.001 0-.001 0 0 0l-.001 30h.001c8.284 0 15-6.716 15-15s-6.716-15-15-15z" fill="#616173"/></g><path d="m511.594 325.2c-1.629-10.774-7.979-20.072-17.423-25.509-13.41-7.723-30.135-5.935-41.612 4.449l-100.832 91.229c-8.29 7.5-19.012 11.631-30.191 11.631h-.016c20.977 0 37.987-17.314 37.488-38.403-.484-20.473-17.715-36.597-38.193-36.597h-82.26c-19.195-12.584-41.437-19.032-64.421-18.599-25.883.466-50.545 9.58-70.672 26.244v152.355h230.117c26.324 0 51.697-11.063 69.612-30.354l99.296-106.924c7.417-7.986 10.736-18.746 9.107-29.522z" fill="#ffe4c2"/><path d="m494.171 299.691c-13.41-7.723-30.135-5.935-41.612 4.449l-100.832 91.229c-8.29 7.5-19.012 11.631-30.191 11.631h-.016c20.977 0 37.987-17.314 37.488-38.403-.484-20.472-17.715-36.597-38.193-36.597h-64.815v160h77.579c26.324 0 51.697-11.063 69.612-30.354l99.296-106.924c7.416-7.985 10.735-18.746 9.106-29.521-1.628-10.775-7.978-20.073-17.422-25.51z" fill="#f2d1a5"/><path d="m321.535 407h-.016-97.5c-8.284 0-15 6.716-15 15s6.716 15 15 15h97.5c37.219 0 67.499-30.28 67.499-67.5 0-2.531-.152-5.027-.425-7.487l-36.867 33.356c-8.289 7.5-19.011 11.631-30.191 11.631z" fill="#f2d1a5"/><path d="m351.727 395.369c-8.29 7.5-19.012 11.631-30.191 11.631h-.016-65.52v30h65.52c37.219 0 67.499-30.28 67.499-67.5 0-2.531-.152-5.027-.425-7.487z" fill="#f2bb88"/><g><g><path d="m86.53 512h-61.53c-13.807 0-25-11.193-25-25v-150c0-13.807 11.193-25 25-25h61.53c13.807 0 25 11.193 25 25v150c0 13.807-11.193 25-25 25z" fill="#9ee2f8"/></g></g></g></svg>